<svg xmlns="http://www.w3.org/2000/svg" width="700" height="700"><defs><clipPath clipPathUnits="userSpaceOnUse" id="a"><path d="M0 1080h1920V0H0z"/></clipPath></defs><g clip-path="url(#a)" transform="matrix(.77732 0 0 -.77732 -379.884 901.765)"><path d="M881.958 610.862v130.853c0 24.076 19.518 43.593 43.595 43.593l38.634-.057c24.007-.048 43.443-19.523 43.443-43.53v-27.853c0-24.076-19.518-43.595-43.594-43.595h-54.594" fill="none" stroke="#939598" stroke-width="8.059" stroke-linecap="round" stroke-linejoin="round" stroke-miterlimit="10"/><path d="M1018.428 785.327h16.759c9.881 0 17.89-8.01 17.89-17.891v-97.748" fill="none" stroke="#939598" stroke-width="8.059" stroke-linecap="round" stroke-linejoin="round" stroke-miterlimit="10"/><path d="M1049.484 800.47l-7.6 7.601a4.828 4.828 0 0 0 0 6.83l7.596 7.594a4.834 4.834 0 0 0 6.838 0l7.596-7.595a4.828 4.828 0 0 0 0-6.829l-7.6-7.6a4.83 4.83 0 0 0-6.83 0" fill="#32bcad"/><path d="M1085.23 785.413h16.62c8.55 0 16.75-3.396 22.795-9.442l38.875-38.874c5.036-5.037 13.2-5.037 18.236 0l38.733 38.732a32.237 32.237 0 0 0 22.795 9.441h13.512" fill="none" stroke="#939598" stroke-width="8.059" stroke-linecap="round" stroke-linejoin="round" stroke-miterlimit="10"/><path d="M1085.23 670.543h16.62c8.55 0 16.75 3.396 22.795 9.442l38.875 38.875c5.036 5.036 13.2 5.036 18.236 0l38.733-38.732a32.234 32.234 0 0 1 22.795-9.442h13.512" fill="none" stroke="#939598" stroke-width="8.059" stroke-linecap="round" stroke-linejoin="round" stroke-miterlimit="10"/><path d="M782.87 645.708c-8.342 0-16.187 3.248-22.085 9.144l-31.89 31.89c-2.238 2.244-6.141 2.237-8.38 0l-32.005-32.007c-5.9-5.895-13.744-9.143-22.086-9.143h-6.284l40.388-40.389c12.614-12.613 33.065-12.613 45.679 0l40.505 40.505z" fill="#32bcad"/><path d="M666.424 758.507c8.342 0 16.187-3.249 22.085-9.145l32.006-32.01c2.305-2.306 6.07-2.316 8.38.002l31.89 31.892c5.898 5.896 13.743 9.144 22.085 9.144h3.841l-40.504 40.504c-12.614 12.614-33.065 12.614-45.679 0l-40.387-40.387z" fill="#32bcad"/><path d="M820.213 724.888l-24.477 24.477a4.659 4.659 0 0 0-1.738-.35H782.87c-5.754 0-11.386-2.334-15.45-6.402l-31.89-31.89a15.26 15.26 0 0 0-10.823-4.478 15.267 15.267 0 0 0-10.823 4.475l-32.009 32.01c-4.066 4.067-9.697 6.4-15.45 6.4H652.74c-.583 0-1.129.138-1.644.332l-24.574-24.574c-12.614-12.613-12.614-33.064 0-45.679l24.573-24.573c.515.194 1.062.332 1.645.332h13.684c5.754 0 11.385 2.333 15.451 6.401l32.006 32.006c5.785 5.78 15.87 5.783 21.648-.003l31.89-31.886c4.065-4.069 9.697-6.402 15.451-6.402h11.128c.617 0 1.2-.134 1.74-.35l24.475 24.475c12.614 12.615 12.614 33.066 0 45.68" fill="#32bcad"/><path d="M915.182 621.984c-1.806 0-3.909-.434-5.988-.913v-7.975c1.441-.526 3.085-.778 4.663-.778 3.998 0 5.895 1.348 5.895 4.869 0 3.313-1.554 4.797-4.57 4.797m-7.337-14.808v15.769h1.097l.115-.687c1.851.435 4.41 1.006 6.238 1.006 1.487 0 2.903-.226 4.091-1.187 1.372-1.121 1.806-2.925 1.806-4.89 0-2.058-.686-4.001-2.559-5.074-1.304-.731-3.063-1.028-4.64-1.028-1.623 0-3.176.253-4.799.73v-4.64z" fill="#939598"/><path d="M931.232 622.032c-4 0-5.782-1.258-5.782-4.777 0-3.405 1.76-4.937 5.782-4.937 3.976 0 5.759 1.235 5.759 4.755 0 3.404-1.76 4.959-5.76 4.959m5.142-9.714c-1.325-.958-3.107-1.233-5.141-1.233-2.08 0-3.862.298-5.166 1.233-1.462 1.028-2.056 2.72-2.056 4.845 0 2.103.594 3.815 2.056 4.869 1.304.936 3.087 1.232 5.166 1.232 2.057 0 3.816-.296 5.14-1.232 1.488-1.054 2.058-2.766 2.058-4.845 0-2.126-.594-3.841-2.057-4.87" fill="#939598"/><path d="M955.304 611.404l-4.457 9.574h-.092l-4.388-9.574h-1.21l-4.753 11.54h1.484l3.954-9.687h.092l4.296 9.688h1.234l4.41-9.688h.093l3.862 9.688h1.439l-4.754-11.541z" fill="#939598"/><path d="M969.888 622.054c-3.702 0-4.96-1.645-5.188-4.023h10.375c-.113 2.627-1.462 4.023-5.187 4.023m-.045-10.97c-2.218 0-3.657.32-4.8 1.282-1.35 1.165-1.805 2.854-1.805 4.796 0 1.852.617 3.816 2.149 4.937 1.279.891 2.856 1.165 4.5 1.165 1.487 0 3.2-.159 4.617-1.12 1.668-1.118 1.989-3.085 1.989-5.323h-11.838c.045-2.377.823-4.48 5.3-4.48 2.127 0 4.115.344 5.967.663v-1.21c-1.921-.345-4.046-.71-6.08-.71" fill="#939598"/><path d="M980.362 611.404v11.54h1.097l.115-.686c2.444.618 3.588 1.006 5.735 1.006h.161v-1.28h-.32c-1.806 0-2.902-.25-5.439-.913v-9.667z" fill="#939598"/><path d="M995.301 622.054c-3.702 0-4.959-1.645-5.188-4.023h10.375c-.113 2.627-1.462 4.023-5.187 4.023m-.045-10.97c-2.218 0-3.657.32-4.8 1.282-1.349 1.165-1.805 2.854-1.805 4.796 0 1.852.617 3.816 2.149 4.937 1.279.891 2.856 1.165 4.501 1.165 1.486 0 3.2-.159 4.616-1.12 1.668-1.118 1.989-3.085 1.989-5.323h-11.838c.045-2.377.823-4.48 5.301-4.48 2.126 0 4.114.344 5.966.663v-1.21c-1.921-.345-4.046-.71-6.079-.71" fill="#939598"/><path d="M1016.677 621.252c-1.44.527-3.085.78-4.661.78-4 0-5.897-1.35-5.897-4.87 0-3.335 1.554-4.797 4.57-4.797 1.806 0 3.909.434 5.988.891zm.252-9.849l-.115.687c-1.85-.434-4.41-1.006-6.238-1.006-1.486 0-2.904.205-4.092 1.19-1.37 1.12-1.806 2.923-1.806 4.888 0 2.056.686 4.001 2.56 5.052 1.303.753 3.062 1.05 4.662 1.05s3.153-.275 4.776-.73v5.278h1.35v-16.409z" fill="#939598"/><path d="M1037.796 621.984c-1.806 0-3.91-.434-5.988-.913v-7.952c1.463-.55 3.085-.801 4.663-.801 3.998 0 5.895 1.348 5.895 4.869 0 3.313-1.554 4.797-4.57 4.797m3.45-9.871c-1.303-.731-3.062-1.028-4.64-1.028-1.713 0-3.426.297-5.164.869l-.068-.55h-.915v16.408h1.349v-5.506c1.85.409 4.342.958 6.1.958 1.488 0 2.904-.226 4.092-1.187 1.372-1.121 1.806-2.925 1.806-4.89 0-2.058-.687-4.001-2.56-5.074" fill="#939598"/><path d="M1045.594 606.972v1.255a18.565 18.565 0 0 1 1.715-.115c1.668 0 2.673.482 3.61 2.38l.434.912-6.032 11.541h1.554l5.165-9.963h.091l4.913 9.963h1.531l-6.49-12.958c-1.188-2.354-2.469-3.13-4.823-3.13-.525 0-1.096.045-1.668.115" fill="#939598"/><path d="M1077.16 617.986h-4.48v-4.046h4.501c3.085 0 4.25.345 4.25 2.034 0 1.808-1.598 2.012-4.272 2.012m-.823 6.56h-3.656v-4.114h3.68c3.04 0 4.25.365 4.25 2.079 0 1.827-1.532 2.035-4.274 2.035m6.948-12.046c-1.646-1.051-3.634-1.096-7.269-1.096h-6.832v15.654h6.673c3.131 0 5.05-.045 6.65-1.006 1.143-.686 1.6-1.737 1.6-3.107 0-1.645-.685-2.742-2.468-3.474v-.09c2.011-.46 3.314-1.488 3.314-3.704 0-1.507-.549-2.491-1.668-3.177" fill="#939598"/><path d="M1098.623 616.249a48.602 48.602 0 0 1-4.16.183c-2.353 0-3.176-.48-3.176-1.553 0-1.006.686-1.555 2.49-1.555 1.509 0 3.315.342 4.846.687zm.685-4.845l-.091.687c-1.965-.482-4.25-1.006-6.262-1.006-1.234 0-2.56.16-3.497.847-.867.616-1.28 1.622-1.28 2.788 0 1.302.573 2.512 1.943 3.129 1.212.572 2.834.617 4.32.617 1.21 0 2.833-.068 4.182-.16v.207c0 1.804-1.19 2.398-4.434 2.398-1.256 0-2.788-.066-4.25-.204v2.33c1.622.136 3.45.228 4.959.228 2.01 0 4.09-.16 5.37-1.073 1.325-.94 1.577-2.242 1.577-3.954v-6.834z" fill="#939598"/><path d="M1116.912 611.404v6.378c0 2.1-1.073 2.854-2.994 2.854-1.416 0-3.198-.364-4.707-.731v-8.501h-3.222v11.54h2.628l.113-.73c2.035.524 4.297 1.05 6.172 1.05 1.416 0 2.856-.204 3.953-1.187.913-.824 1.257-1.964 1.257-3.611v-7.062z" fill="#939598"/><path d="M1129.216 611.084c-1.485 0-3.11.205-4.297 1.211-1.416 1.143-1.828 2.947-1.828 4.892 0 1.827.594 3.816 2.354 4.934 1.439.94 3.222 1.143 5.074 1.143 1.325 0 2.628-.092 4.067-.227v-2.469c-1.166.113-2.56.205-3.68.205-3.062 0-4.502-.96-4.502-3.61 0-2.492 1.075-3.565 3.588-3.565 1.462 0 3.177.274 4.846.593v-2.376c-1.806-.367-3.771-.73-5.622-.73" fill="#939598"/><path d="M1144.355 620.844c-3.063 0-4.412-.962-4.412-3.59s1.326-3.749 4.412-3.749c3.04 0 4.364.94 4.364 3.568 0 2.627-1.3 3.771-4.364 3.771m5.53-8.549c-1.417-.958-3.267-1.21-5.53-1.21-2.309 0-4.159.275-5.553 1.21-1.6 1.051-2.172 2.788-2.172 4.867 0 2.081.572 3.841 2.172 4.892 1.394.936 3.244 1.21 5.553 1.21 2.285 0 4.113-.274 5.53-1.21 1.6-1.05 2.15-2.81 2.15-4.867 0-2.08-.573-3.84-2.15-4.892" fill="#939598"/><path d="M1170.637 611.084c-1.941 0-4.044.32-5.622 1.623-1.873 1.555-2.444 3.953-2.444 6.536 0 2.307.731 5.05 3.175 6.65 1.897 1.232 4.251 1.484 6.628 1.484 1.738 0 3.519-.114 5.463-.274v-2.81c-1.669.137-3.725.252-5.325.252-4.457 0-6.354-1.692-6.354-5.302 0-3.68 1.76-5.326 5.051-5.326 2.147 0 4.547.435 6.97.938v-2.788c-2.423-.48-4.96-.983-7.542-.983" fill="#939598"/><path d="M1187.647 621.208c-2.674 0-3.703-.962-3.909-2.72h7.771c-.092 1.873-1.189 2.72-3.862 2.72m-.48-10.124c-1.897 0-3.61.228-4.89 1.281-1.37 1.14-1.852 2.855-1.852 4.822 0 1.76.572 3.723 2.172 4.867 1.416 1.006 3.222 1.21 5.05 1.21 1.645 0 3.588-.182 5.004-1.165 1.852-1.303 2.012-3.315 2.035-5.69h-10.97c.07-1.76 1.006-2.904 4.25-2.904 2.012 0 4.251.297 6.148.595v-2.262c-2.217-.367-4.639-.754-6.947-.754" fill="#939598"/><path d="M1209.021 611.404v6.378c0 2.1-1.073 2.854-2.994 2.854-1.416 0-3.198-.364-4.707-.731v-8.501h-3.222v11.54h2.628l.114-.73c2.034.524 4.296 1.05 6.171 1.05 1.416 0 2.856-.204 3.953-1.187.914-.824 1.257-1.964 1.257-3.611v-7.062z" fill="#939598"/><path d="M1221.393 611.084c-1.554 0-2.972.435-3.748 1.646-.57.823-.846 1.941-.846 3.496v4.32h-2.33v2.398h2.33l.344 3.497H1220v-3.497h4.547v-2.398H1220v-3.704c0-.89.068-1.645.32-2.194.343-.776 1.096-1.073 2.102-1.073.754 0 1.67.115 2.307.227v-2.306c-1.05-.207-2.262-.412-3.335-.412" fill="#939598"/><path d="M1227.69 611.404v11.54h2.628l.115-.73c2.126.594 3.701 1.05 5.713 1.05.091 0 .23 0 .411-.021V620.5c-.366.022-.8.022-1.119.022-1.578 0-2.766-.182-4.526-.595v-8.523z" fill="#939598"/><path d="M1248.272 616.249a48.607 48.607 0 0 1-4.16.183c-2.353 0-3.177-.48-3.177-1.553 0-1.006.687-1.555 2.49-1.555 1.51 0 3.316.342 4.847.687zm.685-4.845l-.091.687c-1.966-.482-4.251-1.006-6.262-1.006-1.234 0-2.56.16-3.497.847-.867.616-1.28 1.622-1.28 2.788 0 1.302.572 2.512 1.943 3.129 1.21.572 2.834.617 4.32.617 1.21 0 2.833-.068 4.182-.16v.207c0 1.804-1.19 2.398-4.434 2.398-1.257 0-2.788-.066-4.251-.204v2.33c1.623.136 3.45.228 4.96.228 2.01 0 4.09-.16 5.37-1.073 1.325-.94 1.577-2.242 1.577-3.954v-6.834z" fill="#939598"/><path d="M1255.638 627.812h3.222v-16.408h-3.222z" fill="#939598"/></g></svg>