<?xml version="1.0" encoding="UTF-8" standalone="no"?>
<svg width="60px" height="60px" viewBox="0 0 60 60" version="1.1" xmlns="http://www.w3.org/2000/svg" xmlns:xlink="http://www.w3.org/1999/xlink" xmlns:sketch="http://www.bohemiancoding.com/sketch/ns">
    <!-- Generator: Sketch 3.2.2 (9983) - http://www.bohemiancoding.com/sketch -->
    <title>Doubleslideup</title>
    <desc>Created with Sketch.</desc>
    <defs></defs>
    <g id="stroked" stroke="none" stroke-width="1" fill="none" fill-rule="evenodd" sketch:type="MSPage">
        <g id="Interaction" sketch:type="MSLayerGroup" transform="translate(-482.000000, -1444.000000)" stroke="#000000" stroke-width="2" stroke-linecap="round" stroke-linejoin="round">
            <g id="Doubleslidetop" transform="translate(509.440996, 1474.027264) rotate(-90.000000) translate(-509.440996, -1474.027264) translate(482.440996, 1455.527264)" sketch:type="MSShapeGroup">
                <path d="M21.9671033,38.3501022 C21.9671033,38.3501022 15.733635,33.0414032 13.9932961,28.2387101 C12.2514596,23.436017 12.2005374,20.2981993 11.1955741,17.8016131 C10.1921085,15.305027 13.3268152,14.3439067 14.3302808,14.8557287 C15.3352441,15.3690047 17.1130257,17.9935464 17.5818089,19.8503551 C18.0505921,21.7071638 17.9247845,23.2440837 18.4879234,23.691928 L19.1663859,-0.783859119 C19.1663859,-0.783859119 19.8553325,-3.0027237 21.597169,-3.0027237 C23.3375078,-3.0027237 24.1148192,-1.40182599 24.1148192,-0.953981764 C24.1148192,-0.504683496 24.209175,15.1072776 24.209175,15.1072776 L24.6764604,11.1246628 C24.6764604,11.1246628 25.4387947,9.47723584 27.5146206,9.47723584 C29.5904464,9.47723584 29.7432128,11.5914096 29.7432128,11.5914096 L30.3707533,15.6481803 L30.304854,12.8811428 C30.304854,12.8825968 30.6927609,11.2075431 32.8344859,11.2075431 C34.9777087,11.2075431 35.3716064,13.1923073 35.3716064,14.3439067 C35.3716064,15.4969602 36,18.8496526 36,18.8496526 C36,18.8496526 36.3960968,14.8557284 38.2727273,14.8557284 C40.14786,14.8557284 41,16.1367377 41,17.6736576 L41,31.3372687 C41,31.3372687 39.9471669,35.7485344 38.2727273,37.7972763 L38.2727273,42.0875239 C38.2727273,44.7991053 36.0736783,46.9972763 33.3583904,46.9972763 L26.8814402,46.9972763 C24.1673269,46.9972763 21.9671033,44.7928553 21.9671033,42.0925861 L21.9671033,38.3501022 Z" id="Imported-Layers-2" transform="translate(26.000000, 21.997276) rotate(-270.000000) translate(-26.000000, -21.997276) "></path>
                <path d="M46.096676,8.0162055 L52.096676,8.0162055 L52.096676,14.0162055" id="Rectangle-2528" transform="translate(49.096676, 11.016205) scale(-1, 1) rotate(-45.000000) translate(-49.096676, -11.016205) "></path>
                <path d="M46.096676,2.0162055 L52.096676,2.0162055 L52.096676,8.0162055" id="Rectangle-2528" transform="translate(49.096676, 5.016205) scale(-1, 1) rotate(-45.000000) translate(-49.096676, -5.016205) "></path>
                <path d="M46.096676,27.0162055 L52.096676,27.0162055 L52.096676,33.0162055" id="Rectangle-2540" transform="translate(49.096676, 30.016205) scale(-1, -1) rotate(-45.000000) translate(-49.096676, -30.016205) "></path>
                <path d="M46.096676,21.0162055 L52.096676,21.0162055 L52.096676,27.0162055" id="Rectangle-2539" transform="translate(49.096676, 24.016205) scale(-1, -1) rotate(-45.000000) translate(-49.096676, -24.016205) "></path>
            </g>
        </g>
    </g>
</svg>