<?xml version="1.0" encoding="iso-8859-1"?>
<!DOCTYPE svg PUBLIC "-//W3C//DTD SVG 1.1//EN" "http://www.w3.org/Graphics/SVG/1.1/DTD/svg11.dtd">
<svg 
 version="1.1" xmlns="http://www.w3.org/2000/svg" xmlns:xlink="http://www.w3.org/1999/xlink" x="0px" y="0px" width="512px"
	 height="512px" viewBox="0 0 512 512" enable-background="new 0 0 512 512" xml:space="preserve"
><g id="2069a460dcf28295e231f3111e0522ac"><g></g><g fill="#bc47e6"><path display="inline" d="M256,0.5C114.893,0.5,0.5,114.893,0.5,256c0,141.107,114.393,255.5,255.5,255.5S511.5,397.107,511.5,256
		C511.5,114.893,397.107,0.5,256,0.5z M256,468.917c-117.404,0-212.917-95.514-212.917-212.917S138.596,43.083,256,43.083
		c117.403,0,212.917,95.513,212.917,212.917S373.403,468.917,256,468.917z M309.229,394.109c0,19.736-28.033-23.135-53.229-23.135
		s-53.229,42.871-53.229,23.135s28.033-52.942,53.229-52.942S309.229,374.373,309.229,394.109z M242.726,177.703
		c-2.232-19.274-14.7-34.102-32.769-42.273c6.396-1.162,12.78-2.403,19.129-3.859c9.997-2.292,16.514-20.106,2.009-16.784
		c-26.174,5.995-52.585,8.864-77.956,16.004c-0.981,0.208-1.958,0.38-2.944,0.617C103.357,142.63,68.839,181.55,73.11,218.34
		c3.481,30.025,31.699,49.345,67.416,49.345c8.055,0,16.497-0.981,25.118-3.048C212.481,253.422,246.997,214.498,242.726,177.703z
		 M161.672,248.074c-7.144,1.713-14.259,2.578-21.146,2.578c-27.825,0-48.118-13.773-50.497-34.275
		c-3.248-27.974,26.124-59.298,64.133-68.403c7.145-1.713,14.26-2.581,21.146-2.581c27.829,0,48.123,13.771,50.497,34.272
		C229.053,207.645,199.685,238.971,161.672,248.074z M194.47,198.022c0,20.189-16.364,36.553-36.553,36.553
		c-20.186,0-36.554-16.364-36.554-36.553c0-20.186,16.368-36.551,36.554-36.551C178.106,161.471,194.47,177.836,194.47,198.022z
		 M361.806,131.408c-0.985-0.237-1.963-0.409-2.944-0.617c-25.371-7.14-51.782-10.01-77.956-16.004
		c-14.505-3.322-7.988,14.493,2.009,16.784c6.35,1.456,12.733,2.697,19.129,3.859c-18.068,8.171-30.536,22.999-32.769,42.273
		c-3.905,33.651,24.668,69.015,65.4,83.403c-9.701,16.068-11.099,46.792-7.456,64.083c4.849,23.018,20.335,29.509,46.28,29.509
		c21.171,0,33.572-22.298,28.724-45.311c-2.591-12.306-12.23-29.389-23.804-41.96c32.374-2.342,57.221-21.038,60.473-49.087
		C443.159,181.55,408.643,142.63,361.806,131.408z M385.555,312.897c1.659,7.88,0.237,15.802-3.718,20.672
		c-2.233,2.757-4.961,4.096-8.338,4.096c-24.477,0-27.517-6.038-29.612-15.985c-4.379-20.788,1.301-49.354,6.965-53.969
		C359.269,268.634,381.55,293.88,385.555,312.897z M421.971,216.377c-2.374,20.501-22.668,34.275-50.497,34.275
		c-6.886,0-14.001-0.865-21.149-2.578c-38.01-9.104-67.377-40.43-64.129-68.412c2.374-20.498,22.668-34.269,50.497-34.269
		c6.886,0,14.001,0.867,21.146,2.581C395.847,157.079,425.215,188.407,421.971,216.377z M390.637,198.022
		c0,20.189-16.368,36.553-36.554,36.553c-20.189,0-36.554-16.364-36.554-36.553c0-20.186,16.364-36.551,36.554-36.551
		C374.269,161.471,390.637,177.836,390.637,198.022z"></path></g></g></svg>